<?xml version="1.0" encoding="utf-8"?>
<!-- Generator: Adobe Illustrator 27.1.1, SVG Export Plug-In . SVG Version: 6.00 Build 0)  -->
<svg version="1.1" id="Layer_1" xmlns="http://www.w3.org/2000/svg" xmlns:xlink="http://www.w3.org/1999/xlink" x="0px" y="0px"
	 width="250px" height="250px" viewBox="0 0 250 250" style="enable-background:new 0 0 250 250;" xml:space="preserve">
<g>
	<path d="M146.4,63.2c-4.7-4.4-10.9-6.6-18.7-6.6c-8.2,0-14.8,2-19.8,6c-5,4-8.9,9.1-11.7,15.2c-2.8,6.1-4.7,12.8-5.8,19.9
		c-1.1,7.1-1.7,13.8-1.8,20l0.5,0.5c4.6-7.4,10.2-12.8,17-16.2c6.7-3.3,14.5-5,23.3-5c7.7,0,14.7,1.3,20.8,4
		c6.1,2.7,11.3,6.3,15.5,11c4.2,4.7,7.4,10.2,9.7,16.6s3.4,13.3,3.4,20.7c0,5.9-0.9,12.1-2.7,18.4c-1.8,6.4-4.8,12.2-9,17.4
		c-4.2,5.2-9.7,9.6-16.6,13c-6.9,3.4-15.4,5.1-25.6,5.1c-12,0-21.6-2.4-28.9-7.3c-7.3-4.9-12.9-11.1-16.8-18.7
		c-3.9-7.6-6.6-15.9-7.9-25c-1.3-9.1-1.9-17.9-1.9-26.4c0-11.1,0.9-21.8,2.8-32.2c1.9-10.4,5.1-19.6,9.7-27.6
		c4.6-8,10.6-14.5,18.2-19.3c7.6-4.9,17.1-7.3,28.7-7.3c13.3,0,24,3.5,31.9,10.6c7.9,7.1,12.4,17.3,13.7,30.6h-19.3
		C153.9,73.4,151.1,67.6,146.4,63.2z M111.4,117c-4.1,1.9-7.6,4.5-10.5,7.7c-2.9,3.3-5,7.1-6.5,11.6c-1.4,4.5-2.2,9.2-2.2,14.2
		c0,5,0.8,9.7,2.3,14.1c1.5,4.4,3.7,8.2,6.5,11.4c2.8,3.2,6.3,5.7,10.5,7.6c4.2,1.9,8.9,2.8,14.2,2.8c5.3,0,10-0.9,14-2.8
		c4-1.9,7.4-4.5,10.1-7.9c2.7-3.3,4.8-7.2,6.3-11.5c1.4-4.3,2.2-8.8,2.2-13.5c0-5-0.6-9.7-1.9-14.2c-1.3-4.5-3.3-8.3-6-11.6
		c-2.7-3.3-6.1-5.9-10.2-7.9c-4.1-2-8.9-3-14.3-3C120.3,114.2,115.5,115.1,111.4,117z"/>
</g>
<g>
</g>
<g>
</g>
<g>
</g>
<g>
</g>
<g>
</g>
</svg>
